<?xml version="1.0" encoding="utf-8"?>
<!-- Generator: Adobe Illustrator 17.0.1, SVG Export Plug-In . SVG Version: 6.00 Build 0)  -->
<!DOCTYPE svg PUBLIC "-//W3C//DTD SVG 1.1//EN" "http://www.w3.org/Graphics/SVG/1.1/DTD/svg11.dtd">
<svg version="1.1" id="Layer_1" xmlns="http://www.w3.org/2000/svg" xmlns:xlink="http://www.w3.org/1999/xlink" x="0px" y="0px"
	 width="1000px" height="1000px" viewBox="0 0 1000 1000" enable-background="new 0 0 1000 1000" xml:space="preserve">
<g>
	<path fill="#353535" d="M501.37,430.197c9.818-16.102,16.03-33.445,20.369-51.419c9.702-40.194,15.847-80.938,19.479-122.157
		c3.03-34.386,4.981-68.783,4.728-103.271c-0.162-22.137-1.4-44.268-2.228-66.399c-0.213-5.696,1.448-7.581,7.129-7.522
		c9.706,0.099,12.277,2.103,12.851,10.642c3.086,45.861,6.523,91.704,8.995,137.598c1.782,33.087,1.569,66.285,3.5,99.36
		c1.715,29.379,4.793,58.697,8.007,87.961c1.371,12.483,7.551,22.978,18.131,30.439c9.726,6.858,20.547,6.407,31.698,5.443
		c7.309-0.632,27.194-1.472,29.938-1.881c10.356-1.544,20.748-2.851,31.111-4.348c6.754-0.976,13.569-1.747,20.205-3.269
		c19.393-4.448,38.759-9.035,58.049-13.914c52.08-13.171,103.769-27.716,154.725-44.786c1.884-0.631,3.828-1.185,5.789-1.469
		c4.126-0.597,6.624,1.312,7.726,5.317c2.431,8.84,0.356,11.517-8.249,14.591c-13.302,4.752-26.311,10.337-39.374,15.738
		c-55.657,23.008-111.543,45.488-166.806,69.41c-22.679,9.817-44.12,22.557-65.842,34.48c-6.036,3.313-11.41,8.094-16.48,12.849
		c-11.091,10.402-14.771,23.489-10.209,37.855c3.401,10.709,7.554,21.477,13.254,31.105c20.691,34.949,42.08,69.488,63.382,104.072
		c30.738,49.903,61.646,99.701,92.436,149.572c3.926,6.359,0.347,14.102-7.069,15.757c-3.759,0.839-5.337-1.801-7.079-4.301
		c-12.186-17.49-24.006-35.25-36.67-52.387c-33.879-45.845-69.254-90.506-109.262-131.231
		c-20.319-20.683-41.833-40.131-65.489-57.042c-1.444-1.033-11.781-9.409-23.198-10.076c-11.417-0.667-24.89,3.661-34.586,12.082
		c-20.064,17.427-35.415,39.121-51.468,60.131c-47.841,62.615-95.787,125.151-143.741,187.679c-2.317,3.022-4.749,6.189-7.797,8.337
		c-2.154,1.518-5.701,2.474-8.178,1.864c-8.496-2.094-10.323-7.725-5.075-14.921c28.089-38.521,54.096-78.414,78.48-119.359
		c23.185-38.931,44.939-78.662,61.749-120.812c6.574-16.485,12.037-33.553,16.329-50.773c5.402-21.676-2.224-40.879-18.239-55.053
		c-12.271-10.861-26.928-19.409-41.447-27.283c-62.193-33.729-126.975-61.793-193.354-86.178
		c-18.731-6.881-37.71-13.086-56.573-19.608c-8.075-2.792-10.021-6.205-7.624-13.305c2.185-6.472,5.226-8.119,11.815-6.197
		c18.201,5.308,36.434,10.513,54.569,16.04c66.355,20.223,133.185,38.64,200.986,53.413c1.131,0.246,2.269,0.458,3.798,0.765
		c0.851-1.935,1.899-3.819,2.523-5.835c1.68-5.426,0.448-7.444-5.116-8.921c-32.782-8.703-65.559-17.425-98.351-26.086
		c-2.051-0.542-14.796-5.617-17.994-6.495c-6.41-1.758-12.827-3.495-19.242-5.236c-25.962-7.045-51.94-14.027-77.878-21.159
		c-12.989-3.572-25.909-7.394-38.848-11.146c-5.87-1.702-7.436-4.193-5.386-8.866c5.742-13.093,11.129-26.37,17.488-39.161
		c38.352-77.147,93.035-139.26,168.892-181.467c42.361-23.57,87.963-37.703,135.876-44.34c15.814-2.191,31.785-3.242,47.671-4.937
		c4.74-0.506,6.403,2.125,6.615,6.086c0.267,4.987,0.156,9.994,0.211,14.992c0.379,34.479,0.7,68.916-2.702,103.344
		c-2.897,29.316-3.605,58.846-6.426,88.172c-3.808,39.586-7.583,79.381-21.525,116.987
		C497.37,417.752,500.827,423.42,501.37,430.197z M419.678,403.708c6.197,0.417,21.924-3.033,30.271-11.106
		c7.138-6.903,11.734-15.587,13.817-25.047c5.181-23.536,10.666-47.091,14.028-70.92c4.626-32.784,7.467-65.821,10.942-98.764
		c0.997-9.448,1.505-18.937-1.577-28.197c-1.914-5.75-4.683-7.941-10.636-7.695c-4.483,0.185-8.954,0.762-13.419,1.272
		c-49.608,5.668-93.564,25.455-134.85,52.737c-36.166,23.899-65.124,54.815-90.517,89.374c-7.648,10.409-13.97,21.815-20.58,32.954
		c-3.414,5.753-1.562,9.603,4.909,11.455c15.335,4.389,30.678,8.754,46.04,13.044c32.345,9.034,64.668,18.148,97.073,26.962
		C383.27,394.698,413.481,403.291,419.678,403.708z M599.183,519.617c-0.018-36.194-35.273-62.889-69.37-52.528
		c-29.821,9.062-45.45,42.713-33.965,73.131c9.963,26.388,35.758,40.802,62.089,34.695
		C581.905,569.356,599.196,546.174,599.183,519.617z M489.825,604.997c0.051-10.259-10.352-17.616-18.367-13.34
		c-3.926,2.095-8.326,10.966-7.675,15.474c0.639,4.429,6.624,10.1,11.869,10.875c3.226,0.477,5.776,0.146,5.53-4.535
		C480.769,605.626,481.538,605.119,489.825,604.997z M453.808,488.457c-1.799-7.641-10.534-13.609-17.719-11.359
		c-4.232,1.325-8.383,3.078-9.653,8.832c-1.917,8.686,3.352,12.205,9.273,15.915c4.891,3.064,7.163,2.248,8.302-3.355
		C445.739,489.99,445.739,489.99,453.808,488.457z M532.783,405.512c-5.824,0.68-11.52,3.885-12.495,7.51
		c-2,7.44,4.806,18.422,12.417,20.303c3.032,0.749,4.826-0.067,4.268-3.231c-0.803-4.55,1.16-7.413,4.396-10.259
		c3.965-3.486,3.741-7.844-0.559-10.909C538.499,407.278,535.482,406.618,532.783,405.512z M604.879,602.902
		c-2.109-3.781-3.362-6.959-5.445-9.44c-1.446-1.722-3.936-3.23-6.133-3.521c-4.531-0.6-12.239,5.955-13.574,10.839
		c-1.643,6.011,0.849,11.531,6.586,14.584c5.67,3.018,8.294,2.108,9.93-3.958C597.398,607.125,598.936,603.522,604.879,602.902z
		 M627.32,476.575c-10.413,1.312-14.385,4.199-12.451,13.591c0.591,2.871,2.742,5.426,3.299,8.297
		c0.66,3.401,2.452,5.565,5.513,4.816c2.291-0.561,4.463-2.786,6.046-4.78c2.413-3.039,4.541-6.386,6.25-9.868
		c0.847-1.726,1.42-5.087,0.506-5.903C633.395,479.971,629.586,478.023,627.32,476.575z"/>
	<path fill="#353535" d="M819.153,851.624c-2.731-3.846-5.582-7.323-7.855-11.144c-18.883-31.753-37.606-63.602-56.511-95.343
		c-4.165-6.992-8.97-13.599-13.295-20.5c-25.799-41.156-51.706-82.245-77.172-123.606c-5.27-8.559-10.238-17.786-12.863-27.384
		c-4.595-16.799-0.886-28.054,12.445-36.519c10.664-6.771,21.457-13.593,32.91-18.823c41.902-19.135,84.043-37.754,126.213-56.295
		c31.667-13.923,63.464-27.557,95.334-41.009c6.376-2.691,13.26-4.376,20.06-5.815c7.811-1.653,10.9,0.288,12.489,8.236
		c2.738,13.695,5.381,27.45,7.114,41.299c4.519,36.126,5.512,72.412,1.778,108.648c-7.082,68.724-26.761,133.139-65.528,191.167
		c-20.843,31.199-44.02,60.19-72.384,84.868C821.157,850.04,820.385,850.627,819.153,851.624z M752.692,702.332
		c32.25-63.377,44.284-129.237,40.315-198.642c-1.147,0.144-1.977,0.12-2.721,0.361c-32.37,10.458-63.773,23.151-92.874,40.978
		c-9.679,5.929-15.707,14.696-17.774,25.979c-2.348,12.819,0.952,24.471,7.857,35.164c17.418,26.971,34.899,53.902,52.582,80.699
		C743.521,692.089,747.994,696.63,752.692,702.332z"/>
	<path fill="#353535" d="M590.799,297.427c-0.287-13.95,0.402-27.923-0.049-41.864c-0.3-9.288-2.128-18.516-2.77-27.806
		c-1.136-16.442-1.566-32.937-2.889-49.361c-1.536-19.077-3.589-38.116-5.665-57.144c-1.027-9.416-2.421-18.804-3.995-28.146
		c-1.652-9.81,0.398-11.98,10.432-10.808c24.821,2.9,131.256,34.837,188.445,73.02s85.478,75.276,103.066,100.384
		c21.316,30.43,38.283,63.155,52.393,97.425c3.789,9.204,2.019,13.575-6.835,16.115c-31.953,9.166-63.942,18.21-95.984,27.057
		c-21.473,5.929-42.99,11.734-64.615,17.075c-24.21,5.979-48.427,12.093-72.903,16.784c-18.921,3.627-38.217,5.41-57.4,7.526
		c-15.03,1.658-26.765-8.334-32.802-24.883c-3.97-10.883-4.792-23.045-6.075-34.739c-1.232-11.229-1.243-22.593-1.79-33.897
		C591.783,344.147,591.12,312.994,590.799,297.427z M606.465,203.141c0,3.09-0.051,4.892,0.008,6.691
		c0.532,16.127,1.261,32.25,1.591,48.381c0.589,28.809,0.853,57.625,1.45,86.433c0.162,7.808,0.599,15.659,1.647,23.39
		c3.441,25.392,20.429,40.848,46.499,35.766c33.936-6.615,67.597-14.64,101.381-22.04c2.463-0.539,3.534-1.949,2.552-4.294
		c-2.621-6.261-5.099-12.608-8.151-18.659c-32.206-63.846-78.79-114.678-139.047-153.038
		C612.364,204.478,609.699,204.18,606.465,203.141z M607.499,178.777c-1.505,9.351-1.496,9.332,5.628,12.694
		c13.198,6.228,26.377,12.499,39.585,18.707c2.093,0.984,4.382,2.555,6.428,2.349c1.995-0.201,4.117-2.076,5.481-3.778
		c0.396-0.494-1.245-3.608-2.595-4.349c-7.553-4.145-15.197-8.159-23.012-11.782C628.686,187.828,618.171,183.44,607.499,178.777z"
		/>
	<path fill="#353535" d="M544.908,964.312c-55.575-1.082-108.715-13.527-159.475-36.025c-15.938-7.064-31.172-15.714-46.717-23.661
		c-1.33-0.68-2.587-1.508-3.854-2.307c-8.078-5.098-8.354-7.546-2.169-14.739c12.047-14.009,24.439-27.754,35.881-42.246
		c39.321-49.799,79.148-99.239,114.756-151.831c14.086-19.919,28.66-35.878,45.336-52.836c9.256-9.411,23.638-11.728,35.813-4.476
		c10.516,6.263,20.275,13.96,29.754,21.769c21.007,17.305,39.638,37.021,57.232,57.772c22.601,26.655,46.197,52.501,68.012,79.778
		c19.112,23.897,36.356,49.288,54.418,74.025c0.588,0.806,0.999,1.753,1.645,2.503c8.694,10.093,4.924,11.854-2.824,18.321
		c-2.17,1.811-4.373,3.653-6.794,5.085c-41.467,24.526-83.769,47.19-131.353,57.802
		C605.076,959.821,575.207,963.395,544.908,964.312z M676.262,805.552c-4.095-4.865-7.973-9.784-12.173-14.413
		c-25.165-27.731-49.981-55.799-75.834-82.876c-9.777-10.24-21.347-19.167-33.294-26.829c-13.197-8.464-25.426-6.45-37.052,4.026
		c-5.025,4.528-9.525,9.796-13.547,15.256c-31.496,42.758-62.797,85.66-94.209,128.48c-7.366,10.042-14.93,19.939-22.632,30.209
		c1.659,0.785,2.937,1.465,4.27,2.011c38.058,15.585,77.513,24.88,118.72,26.032c6.958,0.195,42.303-7.009,52.719-10.905
		C605.275,860.817,641.653,835.906,676.262,805.552z"/>
	<path fill="#353535" d="M297.579,146.963c-9.212,7.838-18.411,15.692-27.639,23.512c-80.726,68.407-130.352,155.148-150.06,258.66
		C102.471,520.573,109.281,610.757,144.333,697c11.348,27.922,27.423,54.225,44.462,79.142
		c38.884,56.864,87.647,103.472,147.462,138.139c3.169,1.836,6.276,3.778,9.42,5.657c2.332,1.393,4.851,2.755,3.475,6.139
		c-1.476,3.629-4.445,2.398-6.818,1.53c-21.224-7.76-42.806-14.716-63.511-23.69c-46.293-20.064-87.458-47.979-123.013-83.966
		c-39.713-40.195-68.445-87.357-88.732-139.847c-13.002-33.641-22.506-68.226-26.786-104.112
		c-4.847-40.651-3.423-81.129,4.161-121.355c2.248-11.921,4.35-23.937,7.69-35.574c19.144-66.699,49.89-126.959,98.448-177.475
		c39.351-40.938,84.932-72.554,137.334-94.339c2.782-1.157,5.982-1.31,8.988-1.93C297.136,145.867,297.357,146.415,297.579,146.963z
		"/>
	<path fill="#353535" d="M449.348,573.812c-2.66,8.497-5.966,20.318-10.05,31.862c-11.414,32.261-26.274,63.004-43.606,92.418
		c-27.037,45.885-54.799,91.347-82.563,136.798c-6.061,9.922-13.318,19.127-20.226,28.513c-4.707,6.396-11.091,0.253-11.091,0.253
		s-8.344-5.781-13.781-10.438s-68.319-72.014-92.935-115.663c-23.387-41.471-41.232-84.883-47.819-132.464
		c-4.696-33.927-6.582-67.929-4.628-102.124c0.551-9.638,1.1-19.295,2.212-28.878c1.503-12.95,3.438-25.854,5.408-38.744
		c0.923-6.035,2.381-11.987,3.563-17.983c1.889-9.578,4.849-11.68,14.241-8.726c12.679,3.988,25.249,8.353,37.746,12.886
		c48.789,17.693,96.412,38.237,143.97,58.954c32.059,13.965,64.014,28.058,93.012,47.926c2.884,1.976,5.637,4.146,8.557,6.064
		C443.711,542.578,447.933,556.686,449.348,573.812z M170.37,528.766c0.326,0.019,0.653,0.038,0.979,0.056
		c0.61,11.805,0.061,23.812,2.081,35.371c3.716,21.265,7.898,42.56,13.742,63.319c15.4,54.698,42.597,103.122,80.599,145.407
		c2.982,3.318,6.261,6.523,9.901,9.064c7.145,4.988,13.993,4.599,19.549-1.892c8.413-9.829,17.307-19.573,23.838-30.628
		c24.734-41.869,47.141-85.008,65.581-130.055c3.98-9.723,7.067-20.292,7.968-30.696c1.866-21.539-9.144-37.17-27.24-47.403
		c-18.372-10.389-37.219-20.005-56.247-29.15c-21.504-10.335-43.609-19.415-65.137-29.702
		c-17.659-8.438-35.791-15.043-55.142-18.081c-9.044-1.42-13.746,1.542-16.653,10.24c-0.628,1.878-1.146,3.868-1.258,5.832
		C172.017,496.551,171.21,512.66,170.37,528.766z"/>
</g>
</svg>
