<?xml version="1.0" encoding="utf-8"?>
<!-- Generator: Adobe Illustrator 21.1.0, SVG Export Plug-In . SVG Version: 6.00 Build 0)  -->
<svg version="1.1" id="Capa_1" xmlns="http://www.w3.org/2000/svg" xmlns:xlink="http://www.w3.org/1999/xlink" x="0px" y="0px"
	 viewBox="0 0 106.1 106.1" style="enable-background:new 0 0 106.1 106.1;" xml:space="preserve">
<style type="text/css">
	.st0{fill:#FFB204;}
</style>
<path class="st0" d="M90.5,15.5c-20.7-20.7-54.3-20.7-75,0s-20.7,54.3,0,75s54.3,20.7,75,0C111.2,69.9,111.2,36.2,90.5,15.5z
	 M84.8,84.8c-17.5,17.5-46,17.5-63.5,0s-17.5-46,0-63.5s46-17.5,63.5,0S102.3,67.3,84.8,84.8z M54.1,78.2
	c-10.3,0-19.4-5.8-23.1-14.7c-0.7-1.5,0.1-3.3,1.6-3.9c0.4-0.1,0.8-0.2,1.2-0.2c1.2,0,2.3,0.7,2.8,1.9c2.8,6.7,9.6,11,17.5,11
	c7.7,0,14.5-4.3,17.4-11c0.6-1.6,2.4-2.3,3.9-1.6c1.6,0.6,2.3,2.4,1.6,3.9C73.2,72.5,64.2,78.2,54.1,78.2z M33.2,38.7
	c0-3.4,2.8-6.2,6.2-6.2s6.2,2.8,6.2,6.2s-2.8,6.2-6.2,6.2S33.2,42.1,33.2,38.7z M61.4,38.7c0-3.4,2.8-6.2,6.2-6.2
	c3.4,0,6.2,2.8,6.2,6.2s-2.8,6.2-6.2,6.2S61.4,42.1,61.4,38.7z"/>
</svg>
