<?xml version="1.0" encoding="utf-8"?>
<!-- Generator: Adobe Illustrator 21.1.0, SVG Export Plug-In . SVG Version: 6.00 Build 0)  -->
<svg version="1.1" id="Capa_1" xmlns="http://www.w3.org/2000/svg" xmlns:xlink="http://www.w3.org/1999/xlink" x="0px" y="0px"
	 viewBox="0 0 106.1 106.1" style="enable-background:new 0 0 106.1 106.1;" xml:space="preserve">
<style type="text/css">
	.st0{fill:#FFB204;}
</style>
<path class="st0" d="M90.5,15.5c-20.7-20.7-54.3-20.7-75,0c-20.7,20.7-20.7,54.3,0,75c20.7,20.7,54.3,20.7,75,0
	C111.2,69.9,111.2,36.2,90.5,15.5z M84.8,84.8c-17.5,17.5-46,17.5-63.5,0c-17.5-17.5-17.5-46,0-63.5c17.5-17.5,46-17.5,63.5,0
	C102.3,38.8,102.3,67.3,84.8,84.8z M77,74c0.7,1.5,0,3.3-1.6,3.9c-1.5,0.7-3.3,0-3.9-1.6c-2.9-6.7-9.7-11-17.4-11
	c-7.9,0-14.7,4.3-17.5,11c-0.5,1.2-1.6,1.9-2.8,1.9c-0.4,0-0.8-0.1-1.2-0.2c-1.5-0.6-2.3-2.4-1.6-3.9c3.7-8.9,12.8-14.7,23.1-14.7
	C64.2,59.4,73.2,65.1,77,74z M33.2,38.7c0-3.4,2.8-6.2,6.2-6.2c3.4,0,6.2,2.8,6.2,6.2c0,3.4-2.8,6.2-6.2,6.2
	C36,44.9,33.2,42.1,33.2,38.7z M61.4,38.7c0-3.4,2.8-6.2,6.2-6.2c3.4,0,6.2,2.8,6.2,6.2c0,3.4-2.8,6.2-6.2,6.2S61.4,42.1,61.4,38.7z
	"/>
</svg>
