<?xml version="1.0" encoding="utf-8"?>
<!-- Generator: Adobe Illustrator 21.1.0, SVG Export Plug-In . SVG Version: 6.00 Build 0)  -->
<svg version="1.1" id="Слой_2" xmlns="http://www.w3.org/2000/svg" xmlns:xlink="http://www.w3.org/1999/xlink" x="0px" y="0px"
	 viewBox="0 0 183 174.3" style="enable-background:new 0 0 183 174.3;" xml:space="preserve">
<style type="text/css">
	.st0{fill:#FFC757;}
</style>
<path class="st0" d="M144.8,174.3c-1.1,0-2.1-0.2-3.1-0.7l-49.8-25.1c-0.3-0.1-0.6-0.1-0.9,0l-49.8,25.1c-2.3,1.1-4.9,0.9-7-0.5
	c-2.1-1.4-3.2-3.9-2.9-6.4l6.3-54c0-0.3-0.1-0.5-0.2-0.7L1.7,70.7c-1.7-2-2.2-4.7-1.2-7.1s3.3-4,5.9-4.2l52.9-3.5
	c0.3,0,0.6-0.2,0.8-0.5L85.4,3.8C86.5,1.5,88.9,0,91.5,0c0,0,0,0,0,0c2.6,0,5,1.5,6.1,3.8L123,55.4c0.1,0.3,0.5,0.5,0.8,0.5
	l52.9,3.5c2.6,0.2,4.9,1.8,5.9,4.2c1,2.4,0.6,5.1-1.2,7.1L145.5,112c-0.2,0.2-0.3,0.5-0.2,0.7l6.3,54c0.3,2.5-0.8,5-2.9,6.4
	C147.5,173.9,146.2,174.3,144.8,174.3z M91.5,138.4c1.7,0,3.4,0.4,4.9,1.2L141,162l-5.6-48.2c-0.4-3.1,0.6-6.1,2.6-8.5L169.6,69
	l-46.5-3.1c-3.9-0.3-7.4-2.6-9.1-6.1L91.5,14L69,59.8c-1.7,3.5-5.2,5.8-9.1,6.1L13.4,69l31.7,36.4c2,2.3,3,5.4,2.6,8.5L42.1,162
	l44.5-22.5C88.1,138.8,89.8,138.4,91.5,138.4z"/>
</svg>
