<?xml version="1.0" encoding="utf-8"?>
<!-- Generator: Adobe Illustrator 21.1.0, SVG Export Plug-In . SVG Version: 6.00 Build 0)  -->
<svg version="1.1" id="Слой_2" xmlns="http://www.w3.org/2000/svg" xmlns:xlink="http://www.w3.org/1999/xlink" x="0px" y="0px"
	 viewBox="0 0 173 164.3" style="enable-background:new 0 0 173 164.3;" xml:space="preserve">
<style type="text/css">
	.st0{fill:#FFC757;}
</style>
<path class="st0" d="M118.4,55.9l52.9,3.5c1.5,0.1,2.3,1.9,1.3,3.1l-35.8,41.2c-1.1,1.3-1.6,2.9-1.4,4.6l6.3,54
	c0.2,1.5-1.4,2.5-2.7,1.9L89.2,139c-1.7-0.9-3.7-0.9-5.4,0l-49.8,25.1c-1.3,0.7-2.8-0.4-2.7-1.9l6.3-54c0.2-1.7-0.3-3.3-1.4-4.6
	L0.5,62.5c-1-1.2-0.3-3,1.3-3.1l52.9-3.5c2.1-0.1,4-1.4,4.9-3.3L84.9,1c0.7-1.4,2.6-1.4,3.3,0l25.3,51.5
	C114.4,54.5,116.3,55.7,118.4,55.9z"/>
</svg>
